<?xml version="1.0" encoding="utf-8"?>
<!-- Generator: Adobe Illustrator 24.3.0, SVG Export Plug-In . SVG Version: 6.00 Build 0)  -->
<svg version="1.1" baseProfile="tiny" id="Ebene_1" xmlns="http://www.w3.org/2000/svg" xmlns:xlink="http://www.w3.org/1999/xlink"
	 x="0px" y="0px" viewBox="0 0 109.1338577 16.2056694" overflow="visible" xml:space="preserve">
<g>
	<g>
		<path fill="#2D3B4A" d="M3.1567538,12.1859217c-1.5955514,0-1.5955514-1.4374847-1.5955514-2.0557194V3.9331272
			c0-0.9916584-0.042948-1.5236425-0.1438795-2.1275358l1.625006-0.3595523
			c0.1144249,0.4457643,0.1286895,1.0496652,0.1286895,1.9984295v6.1677361c0,0.9780884,0.0437191,1.1362324,0.1581442,1.3086414
			c0.0865898,0.1295376,0.3313239,0.2010918,0.5180743,0.1151953l0.2589986,0.9773941
			C3.8186307,12.1286316,3.5166841,12.1859217,3.1567538,12.1859217z"/>
		<path fill="#2D3B4A" d="M6.3215637,3.6745064c-0.5752869,0-1.0210357-0.474386-1.0210357-1.0496652
			c0-0.5892122,0.4600134-1.0635982,1.0496421-1.0635982c0.560945,0,1.0353775,0.4600751,1.0353775,1.0635982
			C7.3855476,3.2001204,6.9111152,3.6745064,6.3215637,3.6745064z M5.5309205,12.0277777V4.8679585L7.126472,4.5803537v7.4474239
			H5.5309205z"/>
		<path fill="#2D3B4A" d="M12.491498,12.0563831h-1.394537L8.4803734,4.8103604l1.6249294-0.2300067l1.2649984,3.9249191
			c0.2439632,0.7620373,0.4458265,1.6249294,0.4458265,1.6249294h0.0286055c0,0,0.158144-0.8628922,0.4314079-1.6821413
			l1.2077856-3.6952987h1.6528416L12.491498,12.0563831z"/>
		<path fill="#2D3B4A" d="M17.2948074,3.6745064c-0.5752869,0-1.0210361-0.474386-1.0210361-1.0496652
			c0-0.5892122,0.4600906-1.0635982,1.0496426-1.0635982c0.5610218,0,1.0353775,0.4600751,1.0353775,1.0635982
			C18.3587914,3.2001204,17.8844357,3.6745064,17.2948074,3.6745064z M16.5041637,12.0277777V4.8679585l1.5956287-0.2876048
			v7.4474239H16.5041637z"/>
		<path fill="#2D3B4A" d="M24.3548508,12.0277777V7.1969409c0-0.992044-0.2303925-1.2653842-0.8335915-1.2653842
			c-0.4607849,0-1.1219673,0.3452802-1.596323,0.8196354v5.2765856h-1.552681V6.6793294
			c0-0.7620373-0.0722485-1.2077861-0.273262-1.7250896l1.4381771-0.4028778
			c0.1724091,0.3309383,0.2582283,0.6471496,0.2582283,1.0353775c0.7763786-0.6614914,1.4525204-1.0063858,2.228899-1.0063858
			c1.1211967,0,1.8974991,0.6758327,1.8974991,2.0126944v5.4347296H24.3548508z"/>
		<path fill="#2D3B4A" d="M33.6828079,5.9172921c-0.3019447,0-0.5173035-0.0572124-0.5609436-0.0719395
			c0.0436401,0.0433335,0.4743538,0.5176888,0.4743538,1.2653842c0,1.2650757-1.0496407,2.228899-2.7603893,2.228899
			c-0.5173035,0.1866732-0.9773941,0.4600134-0.9773941,0.6897116c0,0.2733402,0.1008549,0.3019466,1.8116798,0.3019466
			c1.1641445,0,2.4155712,0.5895519,2.4155712,2.0706778c0,1.552681-1.2943764,2.3862724-3.2355919,2.3862724
			c-1.883234,0-3.2491646-0.6182346-3.2491646-1.9841652c0-0.3448172,0.1438808-0.7763014,0.1438808-0.7763014H29.2402
			c0,0-0.1151962,0.2876043-0.1151962,0.518074c0,0.6753702,0.5752869,1.048871,1.596323,1.048871
			c1.1211967,0,1.7250881-0.4600906,1.7250881-1.1354609c0-0.7906437-0.6618748-1.0067711-2.0126934-1.0067711
			c-1.9555588,0-2.3869648-0.3877659-2.3869648-1.1069317c0-0.7183189,0.6038933-1.0059233,1.3801937-1.2506571
			c-1.0925884-0.3162889-1.6535339-1.0210361-1.6535339-2.0560279c0-1.480741,1.1648369-2.4585204,2.9042683-2.4585204
			c1.0353775,0,1.6249275,0.3738861,2.2144814,0.3738861c0.4744301,0,0.9201813-0.1724858,1.3222885-0.5034242l0.733429,0.992044
			C34.5450058,5.7881398,34.171505,5.9172921,33.6828079,5.9172921z M30.6633434,5.77349
			c-0.8049088,0-1.2506561,0.4457488-1.2506561,1.2653842c0,0.8339,0.4743538,1.2224364,1.2506561,1.2224364
			c0.8200207,0,1.2507343-0.4314847,1.2507343-1.2367783C31.9140778,6.2048969,31.4977055,5.77349,30.6633434,5.77349z"/>
		<path fill="#2D3B4A" d="M41.4197655,12.0277777V3.5596726c0-0.7047937-0.0428696-1.1934829-0.1581459-1.7540811
			l1.5812874-0.3881663c0.0865898,0.4600753,0.1438026,1.1644912,0.1438026,1.926513v8.6838398H41.4197655z M45.8481102,12.0277777
			l-2.7461281-4.1120558l2.156498-3.1629596h1.9118385l-2.4871254,3.0770636l3.0767555,4.1979518H45.8481102z"/>
		<path fill="#2D3B4A" d="M53.0060005,12.0277777V7.1969409c0-0.992044-0.2303925-1.2653842-0.8335915-1.2653842
			c-0.4607849,0-1.121891,0.3452802-1.5963249,0.8196354v5.2765856h-1.552681V6.6793294
			c0-0.7620373-0.0722466-1.2077861-0.273262-1.7250896l1.438179-0.4028778
			c0.1724091,0.3309383,0.2582283,0.6471496,0.2582283,1.0353775c0.7763786-0.6614914,1.4525185-1.0063858,2.2288971-1.0063858
			c1.1211967,0,1.8974991,0.6758327,1.8974991,2.0126944v5.4347296H53.0060005z"/>
		<path fill="#2D3B4A" d="M59.5976257,12.2145281c-1.9698219,0-3.2062149-1.4804325-3.2062149-3.8094158
			c0-2.3296762,1.2507324-3.8247585,3.1768379-3.8247585c2.070755,0,3.2499313,1.5383391,3.2499313,3.8391008
			C62.8181801,10.7627783,61.5666771,12.2145281,59.5976257,12.2145281z M59.5833626,5.77349
			c-1.0067749,0-1.4382591,0.76196-1.4382591,2.5307684c0,2.1136255,0.5324173,2.7317829,1.4811287,2.7317829
			c0.9344444,0,1.4517479-0.76196,1.4517479-2.5879803C61.07798,6.3916473,60.5034637,5.77349,59.5833626,5.77349z"/>
		<path fill="#2D3B4A" d="M71.3630524,12.0563831h-1.4811249l-0.8915024-3.3493242
			c-0.2296982-0.8628912-0.4744263-1.9844732-0.4744263-1.9844732h-0.0286102c0,0-0.1151962,0.7187037-0.4743576,2.0560274
			l-0.8772278,3.27777h-1.4811325l-1.9841614-7.2030745l1.5677185-0.2153568l0.7906418,3.5225039
			c0.2010956,0.9058399,0.373497,1.9117632,0.373497,1.9117632h0.0436478c0,0,0.1431046-0.9487104,0.4164429-1.954711
			l0.9344482-3.3647456h1.552681l0.8200226,3.2781558c0.3019485,1.1791801,0.4600143,2.0706778,0.4600143,2.0706778h0.0429459
			c0,0,0.1724091-1.107626,0.3591614-1.9554815l0.7476959-3.393352h1.639267L71.3630524,12.0563831z"/>
		<path fill="#2D3B4A" d="M76.4261322,12.1859217c-1.5955505,0-1.5955505-1.4374847-1.5955505-2.0557194V3.9331272
			c0-0.9916584-0.0429535-1.5236425-0.1438828-2.1275358l1.6250076-0.3595523
			c0.1144257,0.4457643,0.1287689,1.0496652,0.1287689,1.9984295v6.1677361c0,0.9780884,0.0436401,1.1362324,0.1588364,1.3086414
			c0.0858154,0.1295376,0.3305511,0.2010918,0.5173035,0.1151953l0.2590714,0.9773941
			C77.0880127,12.1286316,76.7860641,12.1859217,76.4261322,12.1859217z"/>
		<path fill="#2D3B4A" d="M80.0676117,8.8215618V8.936758c0,1.0067711,0.3734207,2.0706778,1.7965622,2.0706778
			c0.6762238,0,1.2650833-0.2446575,1.8117599-0.7190895l0.6181564,0.9630518
			c-0.7620392,0.646841-1.6392746,0.96313-2.6165848,0.96313c-2.0557251,0-3.3500977-1.4804325-3.3500977-3.8094158
			c0-1.2800341,0.2733383-2.1282754,0.905838-2.8469791c0.5896301-0.6758327,1.3087158-0.9777794,2.2288971-0.9777794
			c0.7183228,0,1.3801956,0.1867504,1.998436,0.7476954c0.6324997,0.5749016,0.9487076,1.4664764,0.9487076,3.1629596v0.3305531
			H80.0676117z M81.4621429,5.77349c-0.891571,0-1.3802719,0.7047472-1.3802719,1.8839273h2.6881409
			C82.7700119,6.4782372,82.2527084,5.77349,81.4621429,5.77349z"/>
		<path fill="#2D3B4A" d="M90.7366714,12.0277777c-0.0715561-0.158145-0.0865936-0.2583046-0.1295395-0.5602512
			c-0.4887009,0.4886971-1.0639877,0.7183952-1.7823029,0.7183952c-1.8554001,0-2.976593-1.4518261-2.976593-3.7235193
			c0-2.2861114,1.2650757-3.8391008,3.0195389-3.8391008c0.6181564,0,1.1212006,0.2014008,1.5669479,0.6614914
			c0,0-0.0429459-0.5606365-0.0429459-1.1935215v-2.659543l1.5669403,0.2443484v7.8216257
			c0,1.4374847,0.0865936,2.1709156,0.2304764,2.5300751H90.7366714z M90.391777,6.4782372
			c-0.3599319-0.3881507-0.7906494-0.589551-1.3229828-0.589551c-1.0060043,0-1.466095,0.8049078-1.466095,2.5593748
			c0,1.6098928,0.3162918,2.4155722,1.5090408,2.4155722c0.5895538,0,1.0639038-0.3313236,1.2800369-0.6904831V6.4782372z"/>
		<path fill="#2D3B4A" d="M99.7416306,5.9172921c-0.3019485,0-0.518074-0.0572124-0.5609436-0.0719395
			c0.0428696,0.0433335,0.4743576,0.5176888,0.4743576,1.2653842c0,1.2650757-1.0496445,2.228899-2.7604675,2.228899
			c-0.5173035,0.1866732-0.9773941,0.4600134-0.9773941,0.6897116c0,0.2733402,0.1009293,0.3019466,1.811676,0.3019466
			c1.1641464,0,2.4148788,0.5895519,2.4148788,2.0706778c0,1.552681-1.2936783,2.3862724-3.2348251,2.3862724
			c-1.8832321,0-3.2491608-0.6182346-3.2491608-1.9841652c0-0.3448172,0.1438065-0.7763014,0.1438065-0.7763014h1.4954681
			c0,0-0.1151962,0.2876043-0.1151962,0.518074c0,0.6753702,0.5752869,1.048871,1.5963211,1.048871
			c1.1211929,0,1.72509-0.4600906,1.72509-1.1354609c0-0.7906437-0.6611023-1.0067711-2.0127716-1.0067711
			c-1.9554825,0-2.3869705-0.3877659-2.3869705-1.1069317c0-0.7183189,0.6038971-1.0059233,1.3802719-1.2506571
			c-1.0925903-0.3162889-1.6536102-1.0210361-1.6536102-2.0560279c0-1.480741,1.164917-2.4585204,2.9042664-2.4585204
			c1.0353775,0,1.6250076,0.3738861,2.2145615,0.3738861c0.4743576,0,0.9201813-0.1724858,1.3222122-0.5034242l0.733429,0.992044
			C100.6045227,5.7881398,100.2303314,5.9172921,99.7416306,5.9172921z M96.722168,5.77349
			c-0.804985,0-1.2507401,0.4457488-1.2507401,1.2653842c0,0.8339,0.4743652,1.2224364,1.2507401,1.2224364
			c0.820015,0,1.2506561-0.4314847,1.2506561-1.2367783C97.9728241,6.2048969,97.5564499,5.77349,96.722168,5.77349z"/>
		<path fill="#2D3B4A" d="M103.3740082,8.8215618V8.936758c0,1.0067711,0.3742752,2.0706778,1.7974167,2.0706778
			c0.6761398,0,1.2649994-0.2446575,1.811676-0.7190895l0.6181641,0.9630518
			c-0.7619629,0.646841-1.6391983,0.96313-2.6165924,0.96313c-2.0556412,0-3.3500137-1.4804325-3.3500137-3.8094158
			c0-1.2800341,0.2733383-2.1282754,0.905838-2.8469791c0.5895538-0.6758327,1.3086395-0.9777794,2.2288208-0.9777794
			c0.7183228,0,1.3801956,0.1867504,1.9984283,0.7476954c0.6324997,0.5749016,0.9487915,1.4664764,0.9487915,3.1629596v0.3305531
			H103.3740082z M104.7693176,5.77349c-0.891571,0-1.3801956,0.7047472-1.3801956,1.8839273h2.6881409
			C106.0772629,6.4782372,105.5599594,5.77349,104.7693176,5.77349z"/>
	</g>
	<path fill="#2D3B4A" d="M39.28825,10.7565327c0-0.8713732-0.7130737-1.565094-1.5849113-1.565094
		c-0.8515549,0-1.525383,0.6937208-1.525383,1.565094c0,0.8917294,0.6931801,1.6246204,1.565094,1.6246204
		C38.5751762,12.3811531,39.28825,11.648262,39.28825,10.7565327"/>
</g>
</svg>
